<svg width="19" height="13" viewBox="0 0 19 13" fill="none" xmlns="http://www.w3.org/2000/svg">
<path d="M15.0417 3.33334L11.875 6.5H14.25C14.25 9.12042 12.1204 11.25 9.50002 11.25C8.70044 11.25 7.94044 11.0521 7.28335 10.6958L6.12752 11.8517C7.10127 12.4692 8.2571 12.8333 9.50002 12.8333C12.9992 12.8333 15.8334 9.99917 15.8334 6.5H18.2084L15.0417 3.33334ZM4.75002 6.5C4.75002 3.87959 6.8796 1.75001 9.50002 1.75001C10.2996 1.75001 11.0596 1.94792 11.7167 2.30417L12.8725 1.14834C11.8988 0.530838 10.7429 0.166672 9.50002 0.166672C6.00085 0.166672 3.16669 3.00084 3.16669 6.5H0.791687L3.95835 9.66667L7.12502 6.5H4.75002Z" fill="black"/>
</svg>
